<svg xmlns="http://www.w3.org/2000/svg" viewBox="0 0 16 16" width="32" height="32">
  <defs>
    <style>
      g {
        display: none;
      }
      g:target {
        display: inline;
      }
    </style>
  </defs>
  <g id="logo" fill="currentColor">
    <path fill-rule="evenodd" d="M0 .5A.5.5 0 0 1 .5 0h4a.5.5 0 0 1 0 1h-4A.5.5 0 0 1 0 .5m0 2A.5.5 0 0 1 .5 2h7a.5.5 0 0 1 0 1h-7a.5.5 0 0 1-.5-.5m9 0a.5.5 0 0 1 .5-.5h5a.5.5 0 0 1 0 1h-5a.5.5 0 0 1-.5-.5m-9 2A.5.5 0 0 1 .5 4h3a.5.5 0 0 1 0 1h-3a.5.5 0 0 1-.5-.5m5 0a.5.5 0 0 1 .5-.5h5a.5.5 0 0 1 0 1h-5a.5.5 0 0 1-.5-.5m7 0a.5.5 0 0 1 .5-.5h3a.5.5 0 0 1 0 1h-3a.5.5 0 0 1-.5-.5m-12 2A.5.5 0 0 1 .5 6h6a.5.5 0 0 1 0 1h-6a.5.5 0 0 1-.5-.5m8 0a.5.5 0 0 1 .5-.5h5a.5.5 0 0 1 0 1h-5a.5.5 0 0 1-.5-.5m-8 2A.5.5 0 0 1 .5 8h5a.5.5 0 0 1 0 1h-5a.5.5 0 0 1-.5-.5m7 0a.5.5 0 0 1 .5-.5h7a.5.5 0 0 1 0 1h-7a.5.5 0 0 1-.5-.5m-7 2a.5.5 0 0 1 .5-.5h8a.5.5 0 0 1 0 1h-8a.5.5 0 0 1-.5-.5m0 2a.5.5 0 0 1 .5-.5h4a.5.5 0 0 1 0 1h-4a.5.5 0 0 1-.5-.5m0 2a.5.5 0 0 1 .5-.5h2a.5.5 0 0 1 0 1h-2a.5.5 0 0 1-.5-.5"/>
  </g>
  <g id="shield" fill="currentColor">
    <path d="M5.338 1.59a61 61 0 0 0-2.837.856.48.48 0 0 0-.328.39c-.554 4.157.726 7.19 2.253 9.188a10.7 10.7 0 0 0 2.287 2.233c.346.244.652.42.893.533q.18.085.293.118a1 1 0 0 0 .101.025 1 1 0 0 0 .1-.025q.114-.034.294-.118c.24-.113.547-.29.893-.533a10.7 10.7 0 0 0 2.287-2.233c1.527-1.997 2.807-5.031 2.253-9.188a.48.48 0 0 0-.328-.39c-.651-.213-1.75-.56-2.837-.855C9.552 1.29 8.531 1.067 8 1.067c-.53 0-1.552.223-2.662.524zM5.072.56C6.157.265 7.31 0 8 0s1.843.265 2.928.56c1.11.3 2.229.655 2.887.87a1.54 1.54 0 0 1 1.044 1.262c.596 4.477-.787 7.795-2.465 9.99a11.8 11.8 0 0 1-2.517 2.453 7 7 0 0 1-1.048.625c-.28.132-.581.24-.829.24s-.548-.108-.829-.24a7 7 0 0 1-1.048-.625 11.8 11.8 0 0 1-2.517-2.453C1.928 10.487.545 7.169 1.141 2.692A1.54 1.54 0 0 1 2.185 1.43 63 63 0 0 1 5.072.56"/>
    <path d="M10.854 5.146a.5.5 0 0 1 0 .708l-3 3a.5.5 0 0 1-.708 0l-1.5-1.5a.5.5 0 1 1 .708-.708L7.5 7.793l2.646-2.647a.5.5 0 0 1 .708 0"/>
  </g>
  <g id="trophy" fill="currentColor">
    <path d="M2.5.5A.5.5 0 0 1 3 0h10a.5.5 0 0 1 .5.5q0 .807-.034 1.536a3 3 0 1 1-1.133 5.89c-.79 1.865-1.878 2.777-2.833 3.011v2.173l1.425.356c.194.048.377.135.537.255L13.3 15.1a.5.5 0 0 1-.3.9H3a.5.5 0 0 1-.3-.9l1.838-1.379c.16-.12.343-.207.537-.255L6.5 13.11v-2.173c-.955-.234-2.043-1.146-2.833-3.012a3 3 0 1 1-1.132-5.89A33 33 0 0 1 2.5.5m.099 2.54a2 2 0 0 0 .72 3.935c-.333-1.05-.588-2.346-.72-3.935m10.083 3.935a2 2 0 0 0 .72-3.935c-.133 1.59-.388 2.885-.72 3.935M3.504 1q.01.775.056 1.469c.13 2.028.457 3.546.87 4.667C5.294 9.48 6.484 10 7 10a.5.5 0 0 1 .5.5v2.61a1 1 0 0 1-.757.97l-1.426.356a.5.5 0 0 0-.179.085L4.5 15h7l-.638-.479a.5.5 0 0 0-.18-.085l-1.425-.356a1 1 0 0 1-.757-.97V10.5A.5.5 0 0 1 9 10c.516 0 1.706-.52 2.57-2.864.413-1.12.74-2.64.87-4.667q.045-.694.056-1.469z"/>
  </g>
  <g id="hand" fill="currentColor">
    <path d="M8.864.046C7.908-.193 7.02.53 6.956 1.466c-.072 1.051-.23 2.016-.428 2.59-.125.36-.479 1.013-1.04 1.639-.557.623-1.282 1.178-2.131 1.41C2.685 7.288 2 7.87 2 8.72v4.001c0 .845.682 1.464 1.448 1.545 1.07.114 1.564.415 2.068.723l.048.03c.272.165.578.348.97.484.397.136.861.217 1.466.217h3.5c.937 0 1.599-.477 1.934-1.064a1.86 1.86 0 0 0 .254-.912c0-.152-.023-.312-.077-.464.201-.263.38-.578.488-.901.11-.33.172-.762.004-1.149.069-.13.12-.269.159-.403.077-.27.113-.568.113-.857 0-.288-.036-.585-.113-.856a2 2 0 0 0-.138-.362 1.9 1.9 0 0 0 .234-1.734c-.206-.592-.682-1.1-1.2-1.272-.847-.282-1.803-.276-2.516-.211a10 10 0 0 0-.443.05 9.4 9.4 0 0 0-.062-4.509A1.38 1.38 0 0 0 9.125.111zM11.5 14.721H8c-.51 0-.863-.069-1.14-.164-.281-.097-.506-.228-.776-.393l-.04-.024c-.555-.339-1.198-.731-2.49-.868-.333-.036-.554-.29-.554-.55V8.72c0-.254.226-.543.62-.65 1.095-.3 1.977-.996 2.614-1.708.635-.71 1.064-1.475 1.238-1.978.243-.7.407-1.768.482-2.85.025-.362.36-.594.667-.518l.262.066c.16.04.258.143.288.255a8.34 8.34 0 0 1-.145 4.725.5.5 0 0 0 .595.644l.003-.001.014-.003.058-.014a9 9 0 0 1 1.036-.157c.663-.06 1.457-.054 2.11.164.175.058.45.3.57.65.107.308.087.67-.266 1.022l-.353.353.353.354c.043.043.105.141.154.315.048.167.075.37.075.581 0 .212-.027.414-.075.582-.05.174-.111.272-.154.315l-.353.353.353.354c.047.047.109.177.005.488a2.2 2.2 0 0 1-.505.805l-.353.353.353.354c.006.005.041.05.041.17a.9.9 0 0 1-.121.416c-.165.288-.503.56-1.066.56z"/>
  </g>
  <g id="headset" fill="currentColor">
    <path d="M8 1a5 5 0 0 0-5 5v1h1a1 1 0 0 1 1 1v3a1 1 0 0 1-1 1H3a1 1 0 0 1-1-1V6a6 6 0 1 1 12 0v6a2.5 2.5 0 0 1-2.5 2.5H9.366a1 1 0 0 1-.866.5h-1a1 1 0 1 1 0-2h1a1 1 0 0 1 .866.5H11.5A1.5 1.5 0 0 0 13 12h-1a1 1 0 0 1-1-1V8a1 1 0 0 1 1-1h1V6a5 5 0 0 0-5-5"/>
  </g>
  <g id="telephone" fill="currentColor">
    <path d="M3.654 1.328a.678.678 0 0 0-1.015-.063L1.605 2.3c-.483.484-.661 1.169-.45 1.77a17.6 17.6 0 0 0 4.168 6.608 17.6 17.6 0 0 0 6.608 4.168c.601.211 1.286.033 1.77-.45l1.034-1.034a.678.678 0 0 0-.063-1.015l-2.307-1.794a.68.68 0 0 0-.58-.122l-2.19.547a1.75 1.75 0 0 1-1.657-.459L5.482 8.062a1.75 1.75 0 0 1-.46-1.657l.548-2.19a.68.68 0 0 0-.122-.58zM1.884.511a1.745 1.745 0 0 1 2.612.163L6.29 2.98c.329.423.445.974.315 1.494l-.547 2.19a.68.68 0 0 0 .178.643l2.457 2.457a.68.68 0 0 0 .644.178l2.189-.547a1.75 1.75 0 0 1 1.494.315l2.306 1.794c.829.645.905 1.87.163 2.611l-1.034 1.034c-.74.74-1.846 1.065-2.877.702a18.6 18.6 0 0 1-7.01-4.42 18.6 18.6 0 0 1-4.42-7.009c-.362-1.03-.037-2.137.703-2.877z"/>
  </g>
  <g id="geo" fill="currentColor">
    <path d="M12.166 8.94c-.524 1.062-1.234 2.12-1.96 3.07A32 32 0 0 1 8 14.58a32 32 0 0 1-2.206-2.57c-.726-.95-1.436-2.008-1.96-3.07C3.304 7.867 3 6.862 3 6a5 5 0 0 1 10 0c0 .862-.305 1.867-.834 2.94M8 16s6-5.686 6-10A6 6 0 0 0 2 6c0 4.314 6 10 6 10"/>
    <path d="M8 8a2 2 0 1 1 0-4 2 2 0 0 1 0 4m0 1a3 3 0 1 0 0-6 3 3 0 0 0 0 6"/>
  </g>
  <g id="envelope" fill="currentColor">
    <path d="M0 4a2 2 0 0 1 2-2h12a2 2 0 0 1 2 2v8a2 2 0 0 1-2 2H2a2 2 0 0 1-2-2zm2-1a1 1 0 0 0-1 1v.217l7 4.2 7-4.2V4a1 1 0 0 0-1-1zm13 2.383-4.708 2.825L15 11.105zm-.034 6.876-5.64-3.471L8 9.583l-1.326-.795-5.64 3.47A1 1 0 0 0 2 13h12a1 1 0 0 0 .966-.741M1 11.105l4.708-2.897L1 5.383z"/>
  </g>
  <g id="user" fill="currentColor">
    <path d="M8 8a3 3 0 1 0 0-6 3 3 0 0 0 0 6m2-3a2 2 0 1 1-4 0 2 2 0 0 1 4 0m4 8c0 1-1 1-1 1H3s-1 0-1-1 1-4 6-4 6 3 6 4m-1-.004c-.001-.246-.154-.986-.832-1.664C11.516 10.68 10.289 10 8 10s-3.516.68-4.168 1.332c-.678.678-.83 1.418-.832 1.664z"/>
  </g>
</svg>